<?xml version="1.0" encoding="UTF-8" standalone="no"?>
<svg
   xmlns:dc="http://purl.org/dc/elements/1.1/"
   xmlns:cc="http://creativecommons.org/ns#"
   xmlns:rdf="http://www.w3.org/1999/02/22-rdf-syntax-ns#"
   xmlns:svg="http://www.w3.org/2000/svg"
   xmlns="http://www.w3.org/2000/svg"
   xmlns:sodipodi="http://sodipodi.sourceforge.net/DTD/sodipodi-0.dtd"
   xmlns:inkscape="http://www.inkscape.org/namespaces/inkscape"
   inkscape:export-ydpi="8045.752"
   inkscape:export-xdpi="8045.752"
   inkscape:export-filename="C:\Users\Gabe\Documents\GitHub\CalcBucket\logo.png"
   id="SVGRoot"
   version="1.1"
   viewBox="0 0 3.5 2.0"
   height="2.0in"
   width="3.5in"
   sodipodi:docname="logo.svg"
   inkscape:version="1.0 (4035a4fb49, 2020-05-01)">
  <defs
     id="defs27" />
  <sodipodi:namedview
     id="base"
     pagecolor="#ffffff"
     bordercolor="#666666"
     borderopacity="1.0"
     inkscape:pageopacity="0.0"
     inkscape:pageshadow="2"
     inkscape:zoom="1.4142136"
     inkscape:cx="176.21768"
     inkscape:cy="55.132424"
     inkscape:document-units="in"
     inkscape:current-layer="layer2"
     inkscape:document-rotation="0"
     showgrid="false"
     inkscape:window-width="1366"
     inkscape:window-height="715"
     inkscape:window-x="-8"
     inkscape:window-y="-8"
     inkscape:window-maximized="1"
     showguides="true"
     inkscape:guide-bbox="true" />
  <metadata
     id="metadata30">
    <rdf:RDF>
      <cc:Work
         rdf:about="">
        <dc:format>image/svg+xml</dc:format>
        <dc:type
           rdf:resource="http://purl.org/dc/dcmitype/StillImage" />
      </cc:Work>
    </rdf:RDF>
  </metadata>
  <g
     inkscape:groupmode="layer"
     id="layer2"
     inkscape:label="blocks">
    <rect
       y="0.64300573"
       x="1.6515975"
       height="0.050000001"
       width="0.050000001"
       id="rect63"
       style="fill:#00ffff;stroke-width:0.0104167"
       inkscape:export-xdpi="32183.008"
       inkscape:export-ydpi="32183.008" />
    <rect
       style="fill:#008080;stroke-width:0.0104167"
       id="rect63-4"
       width="0.050000001"
       height="0.050000001"
       x="1.7015976"
       y="0.59300572"
       inkscape:export-xdpi="32183.008"
       inkscape:export-ydpi="32183.008" />
    <rect
       style="fill:#008080;stroke-width:0.0104167"
       id="rect63-9"
       width="0.050000001"
       height="0.050000001"
       x="1.7015976"
       y="0.69300574"
       inkscape:export-xdpi="32183.008"
       inkscape:export-ydpi="32183.008" />
    <rect
       style="fill:#008080;stroke-width:0.0104167"
       id="rect63-7"
       width="0.050000001"
       height="0.050000001"
       x="1.7515975"
       y="0.64300573"
       inkscape:export-xdpi="32183.008"
       inkscape:export-ydpi="32183.008" />
    <rect
       style="fill:#00ffff;stroke-width:0.0104167"
       id="rect63-45"
       width="0.050000001"
       height="0.050000001"
       x="1.8015976"
       y="0.59300572"
       inkscape:export-xdpi="32183.008"
       inkscape:export-ydpi="32183.008" />
    <rect
       style="fill:#008080;stroke-width:0.0104167"
       id="rect63-71"
       width="0.050000001"
       height="0.050000001"
       x="1.8515975"
       y="0.64300573"
       inkscape:export-xdpi="32183.008"
       inkscape:export-ydpi="32183.008" />
    <rect
       style="fill:#00ffff;stroke-width:0.0104167"
       id="rect63-5"
       width="0.050000001"
       height="0.050000001"
       x="1.8015976"
       y="0.69300574"
       inkscape:export-xdpi="32183.008"
       inkscape:export-ydpi="32183.008" />
    <rect
       style="fill:#008080;stroke-width:0.0104167"
       id="rect63-2"
       width="0.050000001"
       height="0.050000001"
       x="1.7515975"
       y="0.74300575"
       inkscape:export-xdpi="32183.008"
       inkscape:export-ydpi="32183.008" />
    <rect
       style="fill:#00ffff;stroke-width:0.0104167"
       id="rect63-76"
       width="0.050000001"
       height="0.050000001"
       x="1.8015977"
       y="0.79300576"
       inkscape:export-xdpi="32183.008"
       inkscape:export-ydpi="32183.008" />
    <rect
       style="fill:#008080;stroke-width:0.0104167"
       id="rect63-3"
       width="0.050000001"
       height="0.050000001"
       x="1.8515977"
       y="0.74300575"
       inkscape:export-xdpi="32183.008"
       inkscape:export-ydpi="32183.008" />
    <rect
       style="fill:#008080;stroke-width:0.0104167"
       id="rect63-8"
       width="0.050000001"
       height="0.050000001"
       x="1.9015977"
       y="0.69300574"
       inkscape:export-xdpi="32183.008"
       inkscape:export-ydpi="32183.008" />
    <rect
       y="0.64300573"
       x="1.9515978"
       height="0.050000001"
       width="0.050000001"
       id="rect63-4-3"
       style="fill:#00ffff;stroke-width:0.0104167"
       inkscape:export-xdpi="32183.008"
       inkscape:export-ydpi="32183.008" />
    <rect
       y="0.74300575"
       x="1.9515978"
       height="0.050000001"
       width="0.050000001"
       id="rect63-9-3"
       style="fill:#00ffff;stroke-width:0.0104167"
       inkscape:export-xdpi="32183.008"
       inkscape:export-ydpi="32183.008" />
    <rect
       y="0.69300574"
       x="2.0015979"
       height="0.050000001"
       width="0.050000001"
       id="rect63-7-8"
       style="fill:#008080;stroke-width:0.0104167"
       inkscape:export-xdpi="32183.008"
       inkscape:export-ydpi="32183.008" />
    <rect
       y="0.64300573"
       x="2.0515978"
       height="0.050000001"
       width="0.050000001"
       id="rect63-45-5"
       style="fill:#008080;stroke-width:0.0104167"
       inkscape:export-xdpi="32183.008"
       inkscape:export-ydpi="32183.008" />
    <rect
       y="0.69300574"
       x="2.1015978"
       height="0.050000001"
       width="0.050000001"
       id="rect63-71-8"
       style="fill:#00ffff;stroke-width:0.0104167"
       inkscape:export-xdpi="32183.008"
       inkscape:export-ydpi="32183.008" />
    <rect
       y="0.74300575"
       x="2.0515978"
       height="0.050000001"
       width="0.050000001"
       id="rect63-5-8"
       style="fill:#008080;stroke-width:0.0104167"
       inkscape:export-xdpi="32183.008"
       inkscape:export-ydpi="32183.008" />
    <rect
       y="0.79300576"
       x="2.0015979"
       height="0.050000001"
       width="0.050000001"
       id="rect63-2-9"
       style="fill:#008080;stroke-width:0.0104167"
       inkscape:export-xdpi="32183.008"
       inkscape:export-ydpi="32183.008" />
    <rect
       y="0.84300578"
       x="2.0515981"
       height="0.050000001"
       width="0.050000001"
       id="rect63-76-2"
       style="fill:#00ffff;stroke-width:0.0104167"
       inkscape:export-xdpi="32183.008"
       inkscape:export-ydpi="32183.008" />
    <rect
       y="0.79300576"
       x="2.101598"
       height="0.050000001"
       width="0.050000001"
       id="rect63-3-6"
       style="fill:#008080;stroke-width:0.0104167"
       inkscape:export-xdpi="32183.008"
       inkscape:export-ydpi="32183.008" />
    <rect
       y="0.79300576"
       x="1.9015979"
       height="0.050000001"
       width="0.050000001"
       id="rect63-45-7"
       style="fill:#008080;stroke-width:0.0104167"
       inkscape:export-xdpi="32183.008"
       inkscape:export-ydpi="32183.008" />
    <rect
       y="0.84300578"
       x="1.9515979"
       height="0.050000001"
       width="0.050000001"
       id="rect63-45-0"
       style="fill:#00ffff;stroke-width:0.0104167"
       inkscape:export-xdpi="32183.008"
       inkscape:export-ydpi="32183.008" />
    <rect
       y="0.84300578"
       x="1.8515977"
       height="0.050000001"
       width="0.050000001"
       id="rect63-45-6"
       style="fill:#008080;stroke-width:0.0104167"
       inkscape:export-xdpi="32183.008"
       inkscape:export-ydpi="32183.008" />
    <rect
       y="0.89300579"
       x="1.9015977"
       height="0.050000001"
       width="0.050000001"
       id="rect63-45-1"
       style="fill:#008080;stroke-width:0.0104167"
       inkscape:export-xdpi="32183.008"
       inkscape:export-ydpi="32183.008" />
    <rect
       y="0.89300579"
       x="2.0015981"
       height="0.050000001"
       width="0.050000001"
       id="rect63-45-3"
       style="fill:#008080;stroke-width:0.0104167"
       inkscape:export-xdpi="32183.008"
       inkscape:export-ydpi="32183.008" />
    <rect
       y="0.9430058"
       x="1.951598"
       height="0.050000001"
       width="0.050000001"
       id="rect63-45-76"
       style="fill:#00ffff;stroke-width:0.0104167"
       inkscape:export-xdpi="32183.008"
       inkscape:export-ydpi="32183.008" />
    <rect
       style="fill:#008080;stroke-width:0.0104167"
       id="rect63-3-6-9"
       width="0.050000001"
       height="0.050000001"
       x="2.151598"
       y="0.84300578"
       inkscape:export-xdpi="32183.008"
       inkscape:export-ydpi="32183.008" />
    <rect
       style="fill:#008080;stroke-width:0.0104167"
       id="rect63-3-6-3"
       width="0.050000001"
       height="0.050000001"
       x="2.101598"
       y="0.89300579"
       inkscape:export-xdpi="32183.008"
       inkscape:export-ydpi="32183.008" />
    <rect
       style="fill:#00ffff;stroke-width:0.0104167"
       id="rect63-3-6-2"
       width="0.050000001"
       height="0.050000001"
       x="2.0515981"
       y="0.9430058"
       inkscape:export-xdpi="32183.008"
       inkscape:export-ydpi="32183.008" />
    <rect
       style="fill:#008080;stroke-width:0.0104167"
       id="rect63-3-6-4"
       width="0.050000001"
       height="0.050000001"
       x="2.151598"
       y="0.9430058"
       inkscape:export-xdpi="32183.008"
       inkscape:export-ydpi="32183.008" />
    <rect
       style="fill:#00ffff;stroke-width:0.0104167"
       id="rect63-3-6-6"
       width="0.050000001"
       height="0.050000001"
       x="2.2015979"
       y="0.89300579"
       inkscape:export-xdpi="32183.008"
       inkscape:export-ydpi="32183.008" />
    <rect
       style="fill:#008080;stroke-width:0.0104167"
       id="rect63-3-6-21"
       width="0.050000001"
       height="0.050000001"
       x="2.1515977"
       y="0.74300575"
       inkscape:export-xdpi="32183.008"
       inkscape:export-ydpi="32183.008" />
    <rect
       style="fill:#00ffff;stroke-width:0.0104167"
       id="rect63-3-6-7"
       width="0.050000001"
       height="0.050000001"
       x="2.2015977"
       y="0.79300576"
       inkscape:export-xdpi="32183.008"
       inkscape:export-ydpi="32183.008" />
    <rect
       style="fill:#008080;stroke-width:0.0104167"
       id="rect63-3-6-68"
       width="0.050000001"
       height="0.050000001"
       x="2.2515979"
       y="0.84300578"
       inkscape:export-xdpi="32183.008"
       inkscape:export-ydpi="32183.008" />
    <rect
       style="fill:#008080;stroke-width:0.0104167"
       id="rect63-3-6-74"
       width="0.050000001"
       height="0.050000001"
       x="2.2515979"
       y="0.9430058"
       inkscape:export-xdpi="32183.008"
       inkscape:export-ydpi="32183.008" />
    <rect
       style="fill:#008080;stroke-width:0.0104167"
       id="rect63-3-6-46"
       width="0.050000001"
       height="0.050000001"
       x="2.2015979"
       y="0.99300581"
       inkscape:export-xdpi="32183.008"
       inkscape:export-ydpi="32183.008" />
    <rect
       style="fill:#00ffff;stroke-width:0.0104167"
       id="rect63-3-6-466"
       width="0.050000001"
       height="0.050000001"
       x="2.2515979"
       y="1.0430058"
       inkscape:export-xdpi="32183.008"
       inkscape:export-ydpi="32183.008" />
    <rect
       style="fill:#008080;stroke-width:0.0104167"
       id="rect63-3-6-94"
       width="0.050000001"
       height="0.050000001"
       x="2.2515979"
       y="1.1430058"
       inkscape:export-xdpi="32183.008"
       inkscape:export-ydpi="32183.008" />
    <rect
       style="fill:#008080;stroke-width:0.0104167"
       id="rect63-3-6-0"
       width="0.050000001"
       height="0.050000001"
       x="2.2015979"
       y="1.0930059"
       inkscape:export-xdpi="32183.008"
       inkscape:export-ydpi="32183.008" />
    <rect
       style="fill:#00ffff;stroke-width:0.0104167"
       id="rect63-3-6-78"
       width="0.050000001"
       height="0.050000001"
       x="2.2015979"
       y="1.1930059"
       inkscape:export-xdpi="32183.008"
       inkscape:export-ydpi="32183.008" />
    <rect
       style="fill:#008080;stroke-width:0.0104167"
       id="rect63-3-6-20"
       width="0.050000001"
       height="0.050000001"
       x="2.2515979"
       y="1.2430059"
       inkscape:export-xdpi="32183.008"
       inkscape:export-ydpi="32183.008" />
    <rect
       style="fill:#008080;stroke-width:0.0104167"
       id="rect63-3-6-64"
       width="0.050000001"
       height="0.050000001"
       x="2.151598"
       y="1.1430058"
       inkscape:export-xdpi="32183.008"
       inkscape:export-ydpi="32183.008" />
    <rect
       style="fill:#00ffff;stroke-width:0.0104167"
       id="rect63-3-6-5"
       width="0.050000001"
       height="0.050000001"
       x="2.151598"
       y="1.0430058"
       inkscape:export-xdpi="32183.008"
       inkscape:export-ydpi="32183.008" />
    <rect
       style="fill:#008080;stroke-width:0.0104167"
       id="rect63-3-6-47"
       width="0.050000001"
       height="0.050000001"
       x="2.101598"
       y="0.99300581"
       inkscape:export-xdpi="32183.008"
       inkscape:export-ydpi="32183.008" />
  </g>
  <g
     inkscape:label="bucket"
     inkscape:groupmode="layer"
     id="layer1"
     style="display:inline">
    <g
       id="g985"
       transform="rotate(39.997908,0.72970677,2.0873031)"
       inkscape:export-xdpi="32183.008"
       inkscape:export-ydpi="32183.008">
      <path
         sodipodi:nodetypes="ccccc"
         id="path44"
         d="M 1.0083617,0.42431682 H 0.47237555 L 0.58089504,1.0380874 h 0.31830338 z"
         style="fill:none;stroke:#000000;stroke-width:0.0104167px;stroke-linecap:butt;stroke-linejoin:miter;stroke-opacity:1" />
      <path
         transform="scale(0.01041667)"
         id="path58"
         d="M 51.136225,70.217359 C 48.332549,54.36119 46.059292,41.367302 46.084543,41.342051 c 0.02525,-0.02525 11.292578,-0.03171 25.038504,-0.01435 l 24.992594,0.03156 -5.128318,28.843534 -5.128317,28.843532 -14.812595,2.18e-4 -14.812595,2.16e-4 z"
         style="fill:#cccccc;stroke-width:0.125" />
      <path
         transform="scale(0.01041667)"
         id="path60"
         d="m 56.185215,98.390505 c -0.07096,-0.360937 -0.21971,-1.190625 -0.330559,-1.84375 -0.110849,-0.653125 -0.23446,-1.271875 -0.274692,-1.375 -0.04023,-0.103125 -0.06244,-0.235027 -0.04935,-0.293117 0.02724,-0.120873 -0.223413,-1.549554 -0.32139,-1.831883 -0.03579,-0.103125 -0.07958,-0.35625 -0.09731,-0.5625 -0.04658,-0.541817 -3.441547,-19.713959 -3.530495,-19.9375 -0.04103,-0.103125 -0.0639,-0.235027 -0.05081,-0.293117 0.02913,-0.12925 -0.228883,-1.572165 -0.327561,-1.831883 -0.03918,-0.103125 -0.06053,-0.235027 -0.04744,-0.293117 0.02764,-0.122677 -0.224694,-1.555064 -0.322716,-1.831883 -0.03652,-0.103125 -0.07581,-0.328125 -0.08731,-0.5 -0.05002,-0.747262 -3.134128,-17.941627 -3.224927,-17.979426 -0.05539,-0.02306 -0.07217,-0.08811 -0.03728,-0.144565 0.09221,-0.149205 -0.213518,-2.001009 -0.330365,-2.001009 -0.05427,0 -0.0706,-0.07315 -0.03629,-0.162556 0.03431,-0.08941 -0.164214,-1.453469 -0.44116,-3.03125 -0.276947,-1.577782 -0.503658,-2.910881 -0.503802,-2.962444 -1.45e-4,-0.05156 11.226081,-0.09375 24.947169,-0.09375 H 96.06637 l -0.07266,0.34375 c -0.183372,0.867492 -0.820811,4.539108 -0.802751,4.623815 0.01113,0.05221 -0.01279,0.17931 -0.05316,0.282435 -0.09175,0.234384 -0.974046,5.214239 -0.946661,5.343119 0.01104,0.05191 -0.01297,0.178756 -0.05334,0.281881 -0.09175,0.234384 -0.974046,5.214239 -0.946661,5.343119 0.01104,0.05191 -0.01297,0.178756 -0.05334,0.281881 -0.09175,0.234384 -0.974046,5.214239 -0.946661,5.343119 0.01104,0.05191 -0.01345,0.178756 -0.05441,0.281881 -0.08169,0.2057 -2.45725,13.566318 -2.521509,14.181454 -0.02189,0.209575 -0.07073,0.465421 -0.108525,0.568546 -0.07986,0.217905 -0.831109,4.476376 -0.890911,5.050165 -0.0222,0.213034 -0.07129,0.47171 -0.109089,0.574835 -0.07986,0.217905 -0.831109,4.476376 -0.890911,5.050165 -0.0222,0.213034 -0.07129,0.47171 -0.109089,0.574835 -0.07986,0.217905 -0.831109,4.476376 -0.890911,5.050165 -0.0222,0.213034 -0.07086,0.47171 -0.10813,0.574835 -0.03727,0.103125 -0.158455,0.721875 -0.269304,1.375 -0.110849,0.653125 -0.2596,1.482813 -0.330559,1.84375 l -0.129016,0.65625 H 71.046506 56.314231 Z"
         style="fill:#cccccc;stroke-width:0.125" />
      <path
         sodipodi:nodetypes="cc"
         id="path973"
         d="m 0.47249777,0.41911583 c -1.5e-7,0.33961146 0.53598633,0.33918855 0.53598633,0"
         style="fill:none;stroke:#404040;stroke-width:0.0104167px;stroke-linecap:butt;stroke-linejoin:miter;stroke-opacity:0.504762" />
    </g>
  </g>
</svg>
